<svg width="61" height="62" viewBox="0 0 61 62" fill="none" xmlns="http://www.w3.org/2000/svg">
<path d="M1.4035 2.4402C2.1975 1.38664 3.49615 0.745334 4.81365 0.75207C7.28581 0.746681 9.75797 0.750723 12.2301 0.749375C12.7886 0.695484 13.3646 1.1064 13.4144 1.68169C13.4628 2.26775 13.4198 2.85651 13.4373 3.44392C13.4252 3.83059 13.4803 4.26172 13.2395 4.5945C13.0228 4.92593 12.6204 5.07682 12.2355 5.06065C9.7647 5.062 7.29254 5.05931 4.82038 5.06065C4.81365 7.5814 4.83249 10.1035 4.81231 12.6256C4.82173 13.1847 4.32514 13.6832 3.76665 13.6751C2.99688 13.6859 2.22441 13.7034 1.45598 13.6643C0.877306 13.6212 0.46012 13.0433 0.513951 12.4801C0.512605 10.051 0.515297 7.62047 0.513951 5.19134C0.493764 4.20783 0.797906 3.21758 1.4035 2.4402Z" fill="#5C5E67"/>
<path d="M47.8925 1.80969C47.879 1.24249 48.3877 0.739957 48.9543 0.756124C51.2461 0.73861 53.5393 0.756124 55.8311 0.748041C56.4111 0.748041 57.0006 0.731873 57.5645 0.88681C59.5279 1.34623 60.9383 3.32268 60.805 5.32743C60.801 7.7121 60.8064 10.0981 60.8024 12.4828C60.8535 13.0392 60.4471 13.6105 59.8778 13.663C59.1094 13.7048 58.3383 13.6846 57.5698 13.6765C56.9992 13.6927 56.4878 13.1861 56.504 12.6135C56.4865 10.0968 56.5027 7.57872 56.4973 5.06067C53.978 5.05528 51.4587 5.07144 48.9408 5.05258C48.3823 5.06201 47.8831 4.56622 47.8925 4.00575C47.8763 3.27418 47.8763 2.54126 47.8925 1.80969Z" fill="#5C5E67"/>
<path d="M19.8513 7.97371C21.9964 7.06969 24.4282 7.02657 26.6675 7.583C28.059 7.91847 29.3913 8.46277 30.6644 9.11081C33.4031 7.69617 36.571 6.78811 39.6555 7.42267C42.6282 8.00335 45.1246 10.0054 46.901 12.3914C49.349 15.6774 50.8091 19.5886 51.7888 23.5374C52.642 27.0619 52.9973 30.6793 53.4212 34.2738C53.7294 37.2028 54.0241 40.1345 54.2744 43.0689C54.339 43.5121 54.1278 43.9796 53.7267 44.1884C50.6288 45.886 47.3357 47.2077 43.9901 48.3111C41.7185 51.457 38.7794 54.2364 35.1808 55.7844C33.0626 56.71 30.6537 57.0832 28.3874 56.5227C24.805 55.6605 21.7097 53.3944 19.2591 50.7039C18.6845 50.0666 18.1368 49.4051 17.6442 48.7032C17.4935 48.5024 17.3549 48.2532 17.0884 48.1993C13.8021 47.1794 10.6247 45.8159 7.59273 44.1898C7.18766 43.981 6.97503 43.5094 7.04232 43.0648C7.35588 39.4716 7.70847 35.8825 8.11758 32.3001C8.50516 29.1758 8.86582 26.0353 9.66655 22.9837C10.5386 19.6263 11.7821 16.3268 13.6917 13.4167C15.2151 11.1102 17.2553 9.02862 19.8513 7.97371ZM27.4871 19.3919C26.5962 21.2929 25.6219 23.1561 24.5493 24.9601C24.3501 25.3226 23.9531 25.5502 23.54 25.5354C21.9157 25.5556 20.2913 25.5193 18.667 25.5502C17.5756 25.5893 16.643 26.5917 16.6658 27.683C16.6591 30.5608 16.6645 33.4399 16.6645 36.319C16.6551 38.538 17.1328 40.7489 17.9955 42.79C19.3722 46.0382 21.6196 48.9106 24.4295 51.038C25.9785 52.1872 27.728 53.1478 29.6457 53.4765C31.3077 53.7608 32.9913 53.2704 34.4743 52.5375C36.7796 51.3869 38.7551 49.6476 40.3795 47.6604C42.4923 45.0588 44.0184 41.9291 44.4948 38.5932C44.7101 37.1705 44.6442 35.7276 44.6549 34.2941C44.6509 32.0886 44.6603 29.8817 44.6509 27.6762C44.6684 26.5405 43.6483 25.5139 42.5098 25.5422C38.2437 25.5341 33.975 25.5422 29.7089 25.5395C29.0993 25.6014 28.4951 25.103 28.5126 24.4751C28.4897 22.4448 28.5206 20.4131 28.5005 18.3827C28.5368 18.1739 28.3605 18.0675 28.2246 17.9543C27.8962 18.3881 27.7213 18.9068 27.4871 19.3919Z" fill="#5C5E67"/>
<path d="M22.7524 30.9593C24.0699 30.6818 25.4062 31.897 25.2676 33.2335C25.2178 34.4636 23.9542 35.4565 22.747 35.2059C21.5466 35.0146 20.6853 33.6956 21.0433 32.5195C21.2505 31.7273 21.9449 31.0913 22.7524 30.9593Z" fill="#5C5E67"/>
<path d="M37.8275 30.9591C39.0899 30.6977 40.3831 31.7998 40.3455 33.0838C40.3831 34.33 39.1625 35.4118 37.9312 35.2219C36.7173 35.0966 35.7887 33.8099 36.0929 32.6162C36.2692 31.7796 36.9851 31.0952 37.8275 30.9591Z" fill="#5C5E67"/>
<path d="M1.23225 48.2372C1.8338 48.1052 2.45824 48.2022 3.07056 48.1712C3.5012 48.1874 3.98971 48.1011 4.36249 48.3733C4.68951 48.5915 4.83619 48.9917 4.82004 49.3756C4.82139 51.8492 4.8187 54.3228 4.82004 56.7964C7.69055 56.7964 10.5624 56.7964 13.4329 56.7964C13.4329 58.234 13.4329 59.6702 13.4329 61.1077C10.5624 61.1064 7.69324 61.1118 4.82408 61.105C3.66135 61.1091 2.50938 60.6187 1.70999 59.7739C0.94964 58.9885 0.51496 57.9012 0.516306 56.8072C0.510923 54.3296 0.51496 51.8506 0.513614 49.373C0.477279 48.8893 0.761234 48.3894 1.23225 48.2372Z" fill="#5C5E67"/>
<path d="M56.5042 49.2409C56.4894 48.6737 56.9928 48.1684 57.5593 48.1805C58.2847 48.1657 59.0127 48.1657 59.7394 48.1805C60.3033 48.1671 60.8066 48.6696 60.7959 49.2355C60.8161 51.4854 60.7959 53.7381 60.8053 55.9894C60.808 56.6913 60.8282 57.4107 60.6034 58.0871C60.0813 59.8452 58.3345 61.1292 56.5029 61.105C54.0294 61.1103 51.5545 61.1076 49.081 61.1063C48.5239 61.1575 47.9506 60.7479 47.9035 60.174C47.8631 59.4033 47.8833 58.6287 47.8914 57.8567C47.8793 57.2949 48.3785 56.7923 48.9411 56.8045C51.459 56.7856 53.9783 56.8018 56.4975 56.7964C56.5029 54.2783 56.4881 51.7589 56.5042 49.2409Z" fill="#5C5E67"/>
</svg>
