<svg width="54" height="50" viewBox="0 0 54 50" fill="none" xmlns="http://www.w3.org/2000/svg">
<path d="M10.3039 3.79097C11.2423 2.04225 13.1799 0.890201 15.1661 0.920137C26.1446 0.918073 37.1221 0.919105 48.1006 0.920137C49.615 0.898459 51.1252 1.53332 52.1606 2.64201C53.0887 3.61135 53.6265 4.92753 53.674 6.26642V30.7681C53.6358 32.3578 52.8812 33.9156 51.6403 34.9128C50.6545 35.7283 49.3755 36.166 48.0975 36.1536C37.2934 36.1567 26.4894 36.1536 15.6853 36.1557C15.1062 36.1588 14.5198 36.1546 13.9521 36.0215C12.0093 35.6106 10.3669 34.0622 9.84042 32.1483C9.57821 31.2935 9.63189 30.3923 9.6288 29.5118C9.6288 21.8366 9.62673 14.1625 9.62983 6.48837C9.62363 5.55104 9.85074 4.61164 10.3039 3.79097ZM14.0336 6.48734C14.0326 13.3934 14.0316 20.3006 14.0347 27.2077C16.0642 25.1885 18.0823 23.158 20.1108 21.1377C20.8654 20.378 21.9452 19.9547 23.0157 20.0115C23.9767 20.0487 24.912 20.4678 25.5882 21.1512C26.4739 22.0297 27.3544 22.9123 28.2381 23.7908C30.7889 20.7341 33.3356 17.6733 35.8854 14.6157C36.2787 14.1501 36.6441 13.6453 37.1551 13.2985C38.7232 12.1268 41.1346 12.4747 42.3548 13.9891C44.6599 16.6772 46.963 19.3663 49.2681 22.0555C49.2712 16.8692 49.2691 11.6829 49.2691 6.49663C49.2919 6.061 49.0472 5.6233 48.6498 5.43645C48.3525 5.28367 48.0097 5.33013 47.6887 5.3229C36.8485 5.32497 26.0083 5.32187 15.1692 5.32496C14.5425 5.28883 13.9882 5.86486 14.0336 6.48734Z" fill="#5C5E67"/>
<path d="M19.8688 7.59537C21.0291 7.38787 22.2709 7.66247 23.2206 8.36443C24.2715 9.12008 24.958 10.3568 25.0313 11.6492C25.1097 12.7847 24.7195 13.942 23.9732 14.7998C23.2206 15.6834 22.1057 16.246 20.9475 16.3193C19.556 16.4288 18.1366 15.8156 17.2529 14.7358C16.3806 13.7056 16.042 12.2583 16.3486 10.9452C16.7161 9.2584 18.1675 7.88131 19.8688 7.59537Z" fill="#5C5E67"/>
<path d="M1.03375 33.8425C2.79796 27.9604 4.55596 22.0763 6.32223 16.1953C6.32636 21.1163 6.32326 26.0362 6.3243 30.9572C6.29126 33.2252 7.19556 35.5055 8.82556 37.0922C10.3554 38.6086 12.4975 39.4768 14.6508 39.4572C25.2846 39.4603 35.9173 39.4572 46.551 39.4592C45.8676 41.6508 45.1739 43.8393 44.4874 46.0298C44.0993 47.25 43.1816 48.2772 42.0367 48.8408C40.959 49.3797 39.6852 49.5118 38.5218 49.199C27.1737 46.1578 15.8256 43.1198 4.47854 40.0797C2.44181 39.5439 0.916072 37.6063 0.820068 35.5097V35.0173C0.858263 34.6209 0.918137 34.2244 1.03375 33.8425Z" fill="#5C5E67"/>
</svg>
